<svg width="20" height="20" viewBox="0 0 20 20" fill="none" xmlns="http://www.w3.org/2000/svg">
<path d="M9.99968 2.06702C12.5836 2.06702 12.8895 2.0767 13.9103 2.12324C14.524 2.13075 15.1319 2.24345 15.7075 2.45642C16.125 2.61741 16.5041 2.86402 16.8204 3.18038C17.1368 3.49675 17.3834 3.87585 17.5444 4.29329C17.7574 4.86892 17.8701 5.4768 17.8776 6.09052C17.9236 7.11126 17.9338 7.41725 17.9338 10.0011C17.9338 12.585 17.9241 12.891 17.8776 13.9117C17.8701 14.5254 17.7574 15.1333 17.5444 15.709C17.3834 16.1264 17.1368 16.5055 16.8204 16.8219C16.5041 17.1382 16.125 17.3848 15.7075 17.5458C15.1319 17.7588 14.524 17.8715 13.9103 17.879C12.89 17.9251 12.584 17.9352 9.99968 17.9352C7.41535 17.9352 7.10936 17.9255 6.08909 17.879C5.47537 17.8715 4.86748 17.7588 4.29185 17.5458C3.87441 17.3848 3.49531 17.1382 3.17895 16.8219C2.86258 16.5055 2.61597 16.1264 2.45498 15.709C2.24201 15.1333 2.12932 14.5254 2.1218 13.9117C2.07572 12.891 2.06558 12.585 2.06558 10.0011C2.06558 7.41725 2.07526 7.11126 2.1218 6.09052C2.12932 5.4768 2.24201 4.86892 2.45498 4.29329C2.61597 3.87585 2.86258 3.49675 3.17895 3.18038C3.49531 2.86402 3.87441 2.61741 4.29185 2.45642C4.86748 2.24345 5.47537 2.13075 6.08909 2.12324C7.10982 2.07716 7.41581 2.06702 9.99968 2.06702ZM9.99968 0.323242C7.37296 0.323242 7.04208 0.334302 6.00982 0.381307C5.20662 0.397283 4.41194 0.549362 3.65959 0.831076C3.0142 1.07424 2.42964 1.4553 1.94669 1.94767C1.45388 2.43079 1.07249 3.01568 0.829178 3.66149C0.547464 4.41384 0.395385 5.20852 0.379409 6.01172C0.333326 7.04306 0.322266 7.37393 0.322266 10.0007C0.322266 12.6274 0.333325 12.9583 0.38033 13.9905C0.396306 14.7937 0.548386 15.5884 0.8301 16.3408C1.07314 16.9865 1.45421 17.5714 1.94669 18.0546C2.4299 18.5471 3.01479 18.9281 3.66051 19.1712C4.41286 19.4529 5.20754 19.605 6.01074 19.6209C7.043 19.667 7.3725 19.679 10.0006 19.679C12.6287 19.679 12.9582 19.6679 13.9905 19.6209C14.7937 19.605 15.5883 19.4529 16.3407 19.1712C16.9834 18.9221 17.567 18.5416 18.0542 18.054C18.5414 17.5665 18.9215 16.9827 19.1702 16.3398C19.4519 15.5875 19.604 14.7928 19.62 13.9896C19.666 12.9583 19.6771 12.6274 19.6771 10.0007C19.6771 7.37393 19.666 7.04306 19.619 6.0108C19.6031 5.2076 19.451 4.41292 19.1693 3.66057C18.9262 3.01485 18.5452 2.42996 18.0527 1.94674C17.5695 1.45427 16.9846 1.0732 16.3389 0.830155C15.5865 0.54844 14.7918 0.396361 13.9886 0.380385C12.9573 0.334302 12.6264 0.323242 9.99968 0.323242Z" fill="#090914"/>
<path d="M10.0008 5.0332C9.01795 5.0332 8.05713 5.32466 7.23988 5.87073C6.42264 6.41679 5.78568 7.19294 5.40954 8.10101C5.0334 9.00908 4.93499 10.0083 5.12674 10.9723C5.31849 11.9363 5.7918 12.8218 6.48681 13.5168C7.18182 14.2118 8.06731 14.6851 9.03132 14.8769C9.99533 15.0686 10.9945 14.9702 11.9026 14.5941C12.8107 14.2179 13.5868 13.581 14.1329 12.7637C14.679 11.9465 14.9704 10.9857 14.9704 10.0028C14.9704 8.68477 14.4468 7.42074 13.5149 6.48876C12.5829 5.55678 11.3189 5.0332 10.0008 5.0332ZM10.0008 13.2286C9.36283 13.2286 8.73916 13.0394 8.20868 12.6849C7.67819 12.3305 7.26473 11.8267 7.02058 11.2373C6.77643 10.6478 6.71255 9.99921 6.83701 9.37346C6.96148 8.74772 7.26871 8.17294 7.71985 7.7218C8.17099 7.27066 8.74577 6.96343 9.37151 6.83896C9.99726 6.7145 10.6459 6.77838 11.2353 7.02253C11.8247 7.26669 12.3285 7.68015 12.683 8.21063C13.0375 8.74111 13.2266 9.36478 13.2266 10.0028C13.2266 10.8583 12.8868 11.6788 12.2818 12.2838C11.6769 12.8887 10.8564 13.2286 10.0008 13.2286Z" fill="#090914"/>
<path d="M15.1671 5.99641C15.8085 5.99641 16.3284 5.47648 16.3284 4.83512C16.3284 4.19376 15.8085 3.67383 15.1671 3.67383C14.5258 3.67383 14.0059 4.19376 14.0059 4.83512C14.0059 5.47648 14.5258 5.99641 15.1671 5.99641Z" fill="#090914"/>
</svg>
