<svg width="20" height="19" viewBox="0 0 20 19" fill="none" xmlns="http://www.w3.org/2000/svg">
<path fill-rule="evenodd" clip-rule="evenodd" d="M9.86441 0.323242C4.7345 0.323242 0.607422 4.45032 0.607422 9.58024C0.607422 13.6687 3.26881 17.1401 6.93303 18.3744C7.39588 18.4515 7.55017 18.1815 7.55017 17.9115C7.55017 17.6801 7.55017 17.1015 7.55017 16.3301C4.96592 16.9087 4.42593 15.0959 4.42593 15.0959C4.00165 14.0159 3.38452 13.7459 3.38452 13.7459C2.53596 13.1673 3.46166 13.1673 3.46166 13.1673C4.38736 13.2445 4.88878 14.1316 4.88878 14.1316C5.69877 15.5587 7.04875 15.1344 7.58874 14.903C7.66588 14.2859 7.8973 13.9002 8.1673 13.6687C6.12305 13.4373 3.96308 12.6273 3.96308 9.07881C3.96308 8.07597 4.31022 7.22742 4.92735 6.61028C4.85021 6.37886 4.50307 5.45316 5.00449 4.14175C5.00449 4.14175 5.77591 3.91033 7.55017 5.10602C8.28301 4.91317 9.093 4.79746 9.86441 4.79746C10.6358 4.79746 11.4458 4.91317 12.1787 5.10602C13.9529 3.91033 14.7243 4.14175 14.7243 4.14175C15.2258 5.41459 14.9172 6.34029 14.8015 6.61028C15.38 7.26599 15.7657 8.07597 15.7657 9.07881C15.7657 12.6273 13.6058 13.3987 11.523 13.6302C11.8701 13.9002 12.1401 14.4787 12.1401 15.3273C12.1401 16.5616 12.1401 17.5644 12.1401 17.873C12.1401 18.1044 12.2944 18.413 12.7958 18.3358C16.46 17.1401 19.1214 13.6687 19.1214 9.58024C19.1214 4.45032 14.9943 0.323242 9.86441 0.323242Z" fill="#090914"/>
</svg>
