<svg width="17" height="14" viewBox="0 0 17 14" fill="none" xmlns="http://www.w3.org/2000/svg">
<path d="M16.871 1.68987C16.2723 1.95591 15.6405 2.12219 14.9754 2.22196C15.6405 1.82289 16.1726 1.19103 16.4054 0.42615C15.7735 0.791963 15.0751 1.05801 14.3103 1.22429C13.7117 0.592428 12.847 0.193359 11.9158 0.193359C10.12 0.193359 8.65679 1.65661 8.65679 3.45242C8.65679 3.71847 8.69004 3.95126 8.75655 4.18405C6.06284 4.05102 3.63517 2.75405 2.00564 0.758707C1.7396 1.25754 1.57332 1.78963 1.57332 2.38824C1.57332 3.51893 2.13866 4.5166 3.03657 5.11521C2.50448 5.08195 2.00564 4.94893 1.54006 4.71614V4.74939C1.54006 6.34567 2.67076 7.6759 4.16726 7.9752C3.90122 8.04171 3.60192 8.07497 3.30262 8.07497C3.10308 8.07497 2.87029 8.04171 2.67076 8.00846C3.10308 9.30543 4.30029 10.2698 5.73028 10.2698C4.59959 11.1345 3.20285 11.6666 1.67308 11.6666C1.40704 11.6666 1.14099 11.6666 0.908203 11.6333C2.37146 12.5645 4.0675 13.0966 5.92982 13.0966C11.9491 13.0966 15.2414 8.10822 15.2414 3.78498C15.2414 3.65196 15.2414 3.48568 15.2414 3.35265C15.8733 2.92033 16.4386 2.35498 16.871 1.68987Z" fill="#090914"/>
</svg>
